<svg xmlns="http://www.w3.org/2000/svg" viewBox="0 0 64 64">
  <defs>
    <linearGradient id="tg-gradient" x1="8" y1="8" x2="56" y2="56" gradientUnits="userSpaceOnUse">
      <stop offset="0" stop-color="#b65e30" />
      <stop offset="1" stop-color="#8f421c" />
    </linearGradient>
  </defs>
  <rect x="4" y="4" width="56" height="56" rx="18" fill="url(#tg-gradient)" />
  <path
    d="M18 22h28v6H35v22h-7V28H18z"
    fill="#fff8f2"
  />
  <path
    d="M47 35v6c0 6-4 10-11 10-7 0-12-4.5-12-12.5S29 26 36.5 26c4.2 0 7.3 1.3 9.8 3.8l-4.6 4.3c-1.3-1.3-2.8-2.1-5-2.1-3.5 0-5.8 2.5-5.8 6.5 0 4.1 2.2 6.6 6.2 6.6 2.8 0 4.6-1.2 5.2-4.1h-6v-6z"
    fill="#fff8f2"
  />
</svg>
